<svg height="524" viewBox="0 0 524 524" width="524" xmlns="http://www.w3.org/2000/svg"><circle cx="262" cy="262" fill="none" r="250" stroke="#000" stroke-width="20"/><circle cx="262" cy="132" r="40"/><path d="m432 122v20l-.6-.8-.4.3v-18.4l.5-.2-.5-.9z"/><path d="m431.4 141.2.6.8h-1v-.5z"/><path d="m432 142-101.2 69.8-.2-.3-.3-.5 100.7-69.5v.5z"/><path d="m431 122 .5.9-.5.2z"/><path d="m431 123.1v18.4l-100.7 69.5c-18.4 12.6-27.7 28.8-29.2 50.9l.7.1h-.7l-10.1 219h-18v-278.4z"/><path d="m431 122v1.1l-158 79.5v-.6h-1z"/><path d="m330.6 211.5.2.3c-23.9 16.3-27.9 36.5-28.8 50.2h-.3-.7c1.5-22.1 10.8-38.3 29.2-50.9z"/><path d="m330.3 211 .3.5z"/><path d="m302 262h-.3z"/><path d="m302 262-10 220v-1h-1l10-219h.7z"/><path d="m292 481v1h-1v-1z"/><path d="m292 482h-19v-1h18v1z"/><path d="m272 481h1v1h-1z"/><path d="m273 202.6v278.4h-1v-279l.4.9z"/><path d="m273 202v.6l-.6.3-.4-.9z"/><path d="m92 122v20l.6-.8.4.3v-18.4l-.4-.2.4-.9z"/><path d="m92.6 141.2-.6.8h1v-.5z"/><path d="m92 142 101.2 69.8.2-.3.3-.5-100.7-69.5v.5z"/><path d="m93 122-.4.9.4.2z"/><path d="m93 123.1v18.4l100.7 69.5c18.5 12.6 27.7 28.8 29.2 50.9l-.7.1h.7l10.1 219h18v-278.4z"/><path d="m93 122v1.1l158 79.5v-.6h1z"/><path d="m193.4 211.5-.2.3c23.9 16.3 27.9 36.5 28.8 50.2h.3.7c-1.5-22.1-10.8-38.3-29.2-50.9z"/><path d="m193.7 211-.3.5z"/><path d="m222 262h.3z"/><path d="m222 262 10 220v-1h1l-10-219h-.7z"/><path d="m232 481v1h1v-1z"/><path d="m232 482h19v-1h-18v1z"/><path d="m251 481h1v1h-1z"/><path d="m251 202.6v278.4h1v-279l-.4.9z"/><path d="m251 202v.6l.6.3.4-.9z"/></svg>