<svg enable-background="new 0 0 524 524" height="524" viewBox="0 0 524 524" width="524" xmlns="http://www.w3.org/2000/svg"><circle cx="262" cy="262" fill="none" r="250" stroke="#b7410e" stroke-width="24"/><g fill="#b7410e"><circle cx="262" cy="132" r="40"/><path d="m432 122v20l-.57-.82-.43.3v-18.36l.45-.23-.45-.89z"/><path d="m431.43 141.18.57.82h-1v-.52z"/><path d="m432 142-101.17 69.83-.23-.33-.33-.49 100.73-69.53v.52z"/><path d="m431 122 .45.89-.45.23z"/><path d="m431 123.12v18.36l-100.73 69.53h-.01c-18.45 12.63-27.74 28.81-29.24 50.93l.69.05-.71-.03-9.96 219.04h-18.04v-278.39z"/><path d="m431 122v1.12l-158 79.49v-.61h-1z"/><path d="m330.6 211.5.23.33v.01c-23.89 16.34-27.88 36.46-28.811 50.17h-.019v-.01l-.29-.01-.69-.05c1.5-22.12 10.79-38.3 29.24-50.93z"/><path d="m330.27 211.01.33.49-.34-.49z"/><path d="m302 262v.01l-.29-.02z"/><path d="m302 262.01-10 219.99v-1h-.96l9.96-219.04.71.03z"/><path d="m292 481v1l-1-.04.04-.96z"/><path d="m292 482h-19v-1h18.04l-.04.96z"/><path d="m272 481h1v1h-1z"/><path d="m273 202.61v278.39h-1v-279l.44.89z"/><path d="m273 202v.61l-.56.28-.44-.89z"/><path d="m92 122v20l.57-.82.43.3v-18.36l-.45-.23.45-.89z"/><path d="m92.57 141.18-.57.82h1v-.52z"/><path d="m92 142 101.17 69.83.23-.33.33-.49-100.73-69.53v.52z"/><path d="m93 122-.45.89.45.23z"/><path d="m93 123.12v18.36l100.73 69.53h.01c18.45 12.63 27.74 28.81 29.24 50.93l-.69.05.71-.03 9.96 219.04h18.04v-278.39z"/><path d="m93 122v1.12l158 79.49v-.61h1z"/><path d="m193.4 211.5-.23.33v.01c23.89 16.34 27.88 36.46 28.81 50.17h.02v-.01l.29-.01.69-.05c-1.5-22.12-10.79-38.3-29.24-50.93z"/><path d="m193.73 211.01-.33.49.34-.49z"/><path d="m222 262v.01l.29-.02z"/><path d="m222 262.01 10 219.99v-1h.96l-9.96-219.04-.71.03z"/><path d="m232 481v1l1-.04-.04-.96z"/><path d="m232 482h19v-1h-18.04l.04.96z"/><path d="m251 481h1v1h-1z"/><path d="m251 202.61v278.39h1v-279l-.44.89z"/><path d="m251 202v.61l.56.28.44-.89z"/></g></svg>